<?xml version="1.0" encoding="utf-8"?>
<!-- Generator: Adobe Illustrator 26.0.1, SVG Export Plug-In . SVG Version: 6.00 Build 0)  -->
<svg version="1.1" id="Layer_1" xmlns="http://www.w3.org/2000/svg" xmlns:xlink="http://www.w3.org/1999/xlink" x="0px" y="0px"
	 viewBox="0 0 500 500" style="enable-background:new 0 0 500 500;" xml:space="preserve">
<style type="text/css">
	.st0{fill:#6F090B;}
</style>
<g>
	<path class="st0" d="M250,135.3c-17.1,7.5-34.3,16.1-51.3,25.9c-17.1,9.8-33,20.5-48,31.5c-2.1,18.4-3.3,37.6-3.3,57.3
		s1.2,38.8,3.3,57.3c14.9,11,30.9,21.7,48,31.5c17,9.8,34.1,18.3,51.2,25.8c17-7.5,34.3-16,51.4-25.8c17.1-9.8,33-20.5,48-31.5
		c2.1-18.4,3.3-37.6,3.3-57.3s-1.2-38.8-3.3-57.3c-14.9-11-30.9-21.7-48-31.5C284.3,151.4,267.1,142.9,250,135.3z M313,206.4
		c1.9,1.7,3,4.2,2.9,6.8c-0.6,13.1-4.3,46-25.6,67.7c-8.8,8.9-19.5,14.4-31.7,16.9v22.6c0,4.7-3.8,8.5-8.5,8.5s-8.5-3.8-8.5-8.5
		v-22.6c-12.2-2.4-23-8-31.8-16.9c-21.3-21.7-25-54.6-25.6-67.7c-0.1-2.6,1-5.1,2.9-6.8s4.6-2.5,7.1-2c10.1,1.8,19.3,5.4,27.8,10.4
		c5.1-11.3,13.9-25,22-33.2c1.6-1.6,3.8-2.5,6.1-2.5s4.5,0.9,6.1,2.5c8.1,8.2,16.9,21.9,22,33.2c8.5-5,17.7-8.6,27.8-10.4
		C308.4,203.9,311,204.7,313,206.4z"/>
	<path class="st0" d="M325.7,92.4C306.8,44,279.7,13,250,13S193.2,44,174.3,92.4c24.4,5.3,49.9,13.5,75.7,24.4
		C275.8,105.9,301.3,97.7,325.7,92.4z"/>
	<path class="st0" d="M228.5,126.5c-20.5-7.9-40.6-13.9-60-17.9c-6.1,18.5-11,39-14.6,60.9c11.6-7.9,23.6-15.6,36.3-23
		C202.9,139.2,215.7,132.6,228.5,126.5z"/>
	<path class="st0" d="M134.6,183.4c3.5-28.3,9.1-54.6,16.6-77.9c-4.4-0.7-8.8-1.3-13.1-1.8c-46.5-4.6-80.5,5.5-93.3,27.8
		c-14.8,25.6-1.5,64.6,30.8,105.1C92,218.5,111.9,200.5,134.6,183.4z"/>
	<path class="st0" d="M202.2,224c2.7,18.5,9.7,34.8,19.6,44.8c5.5,5.6,12.1,9.5,19.7,11.6v-19.5c-1.2-3-5.1-11.1-13.3-19.7
		C220.8,233.3,212,227.6,202.2,224z"/>
	<path class="st0" d="M309.8,146.5c12.7,7.4,24.7,15.1,36.3,23c-3.6-22-8.5-42.4-14.6-60.9c-19.3,4-39.5,10-60,17.9
		C284.3,132.6,297.1,139.2,309.8,146.5z"/>
	<path class="st0" d="M258.5,260.9v19.5c7.5-2.1,14.1-6,19.7-11.6c9.9-10,16.9-26.3,19.6-44.8c-9.8,3.5-18.5,9.2-26,17.2
		C263.6,249.8,259.7,258,258.5,260.9z"/>
	<path class="st0" d="M264.1,225.3c-2.4-6.6-8-16.5-14.1-24.6c-6.1,8.1-11.7,18-14.1,24.6c1.6,1.4,3.2,2.7,4.7,4.2
		c4,4.2,6.9,8.2,9.4,11.9c2.5-3.7,5.4-7.7,9.4-11.9C260.9,228,262.5,226.7,264.1,225.3z"/>
	<path class="st0" d="M86.9,250c12.9,14.5,28.2,28.9,45.3,42.9c-1.1-13.9-1.8-28.2-1.8-42.9c0-14.7,0.7-29,1.8-42.9
		C115.1,221.1,99.9,235.6,86.9,250z"/>
	<path class="st0" d="M413.1,250c-12.9-14.5-28.2-28.9-45.3-42.9c1.1,13.9,1.8,28.2,1.8,42.9c0,14.7-0.7,29-1.8,42.9
		C384.9,278.9,400.2,264.5,413.1,250z"/>
	<path class="st0" d="M365.4,316.6c-3.5,28.3-9.1,54.6-16.6,77.9c4.4,0.7,8.8,1.4,13.1,1.8c46.4,4.6,80.5-5.5,93.3-27.8
		c14.8-25.6,1.5-64.6-30.8-105.1C408,281.6,388.1,299.5,365.4,316.6z"/>
	<path class="st0" d="M75.5,263.5C43.2,304,29.9,342.9,44.7,368.5c14.8,25.6,55.2,33.6,106.4,25.9c-7.5-23.3-13-49.5-16.5-77.8
		C111.9,299.5,92,281.6,75.5,263.5z"/>
	<path class="st0" d="M424.5,236.6c32.3-40.5,45.6-79.4,30.8-105.1c-10.8-18.8-36.6-28.9-72.2-28.9c-6.7,0-13.7,0.4-21.1,1.1
		c-4.3,0.4-8.7,1.1-13.1,1.8c7.5,23.3,13.1,49.6,16.6,77.9C388.1,200.5,408,218.5,424.5,236.6z"/>
	<path class="st0" d="M190.2,353.5c-12.7-7.4-24.7-15.1-36.3-23c3.6,21.9,8.4,42.3,14.5,60.7c19-4,39.1-9.9,59.8-17.8
		C215.6,367.4,202.8,360.8,190.2,353.5z"/>
	<path class="st0" d="M271.5,373.5c20.5,7.9,40.7,13.9,60,17.9c6.1-18.5,11-39,14.6-60.9c-11.5,7.9-23.6,15.6-36.3,23
		C296.9,360.9,284.2,367.4,271.5,373.5z"/>
	<path class="st0" d="M174.4,407.7c18.9,48.3,46,79.3,75.6,79.3c29.6,0,56.8-31.1,75.7-79.4c-24.3-5.3-49.9-13.5-75.7-24.4
		C223.8,394.3,198.3,402.5,174.4,407.7z"/>
</g>
</svg>
