<?xml version="1.0" encoding="utf-8"?>
<!-- Generator: Adobe Illustrator 26.0.1, SVG Export Plug-In . SVG Version: 6.00 Build 0)  -->
<svg version="1.1" id="Layer_1" xmlns="http://www.w3.org/2000/svg" xmlns:xlink="http://www.w3.org/1999/xlink" x="0px" y="0px"
	 viewBox="0 0 500 500" style="enable-background:new 0 0 500 500;" xml:space="preserve">
<style type="text/css">
	.st0{fill:#6F090B;}
</style>
<g>
	<path class="st0" d="M469.5,400.9c-1.2-2.5-3.7-4-6.5-4h-22.8c9.5-9.3,15.5-22.3,15.5-36.7c0-12.1-9.9-22-22-22h-22.9l-4.8-38.3
		l48.9-97.9c1.8-3.7,0.4-8.1-3.2-9.8c-3.7-1.8-8.1-0.4-9.8,3.2l-39.1,78.2l-5.8-46.4c-0.5-4-4.1-6.9-8.1-6.4c-4,0.5-6.9,4.2-6.4,8.1
		l8.5,68.3l-20.5,41h-13.2c-6.5-10.1-10.2-20.5-11.3-30.8c8.4-3.1,14.4-11.1,14.4-20.6s-6.1-17.5-14.5-20.6
		c1-23.3,13.5-45.4,34.2-59.4c20.7-13.9,36.6-33.6,45.8-56.8c0.9-2.3,0.6-4.8-0.7-6.8c-1.4-2.1-3.7-3.2-6.1-3.2H316.1v-15.4
		c16.7-3.5,29.4-18.5,29.4-36.4c0-26.9-30.5-55.1-31.7-56.4c-2.9-2.6-7.1-2.6-10,0C302.5,32.9,272,61.1,272,88
		c0,17.6,12.8,32.8,29.4,36.3v15.5H198.6c-2.4,0-4.7,1.2-6.1,3.2c-1.3,2-1.6,4.6-0.7,6.8c9.3,23.2,25.1,42.8,45.8,56.8
		c20.7,13.9,33.3,36,34.2,59.4c-8.4,3.1-14.5,11.2-14.5,20.6s5.9,17.4,14.3,20.6c-2.8,27.4-24,48.2-34.6,56.9l3.5-5.9
		c6.2-10.9,9.5-23.4,9.5-36.3c0-16.2-5.3-32.1-15-44.6l-27.8-35.6l12.6-25.2c1.2-2.3,1-5-0.3-7.2c-1.3-2.1-3.7-3.5-6.2-3.5H66.5
		c-2.6,0-4.9,1.3-6.2,3.5c-1.3,2.2-1.5,4.9-0.3,7.2l12.6,25.2l-27.8,35.7c-9.7,12.4-15,28.3-15,44.5c0,12.8,3.3,25.4,9.5,36.2
		l22,38.7H37.1c-2.8,0-5.3,1.5-6.5,4c-1.2,2.5-1,5.5,0.7,7.7l30.8,41.1c9.6,12.8,25,20.6,41.1,20.6h293.7c16.1,0,31.5-7.7,41.1-20.6
		l30.8-41.1C470.5,406.4,470.7,403.4,469.5,400.9z M394.1,323.4l1.8,14.7h-9.2L394.1,323.4z M433.6,352.8c4,0,7.3,3.3,7.3,7.3
		c0,20.3-16.4,36.7-36.7,36.7h-44.1c-20.3,0-36.7-16.4-36.7-36.7c0-4,3.3-7.3,7.3-7.3H433.6z M279.4,279.4h58.7c4,0,7.3,3.3,7.3,7.3
		c0,4-3.3,7.3-7.3,7.3h-58.7c-4,0-7.3-3.3-7.3-7.3C272,282.7,275.3,279.4,279.4,279.4z M288,95.4c-0.8-2.3-1.3-4.8-1.3-7.3
		c0-13.9,13.1-31.1,22-40.6c8.9,9.5,22,26.7,22,40.6c0,2.6-0.5,5.1-1.3,7.4c-3.7-11.9-14.3-22.1-15.7-23.4c-2.9-2.6-7.1-2.6-10,0
		C302.4,73.4,291.7,83.5,288,95.4z M225.3,176.6c-5.9-6.7-11-14-15.2-22h197.4c-4.2,8-9.3,15.3-15.2,22H225.3z M245.8,194.5
		c-1.5-1-2.8-2.1-4.3-3.2h134.4c-1.5,1.1-2.8,2.3-4.3,3.2c-5,3.5-9.5,7.3-13.7,11.5h-98.4C255.4,201.8,250.8,198,245.8,194.5z
		 M313.8,382.2c2.6,5.5,6.1,10.5,10.4,14.7H213.3v-7.3c0-4,3.3-7.3,7.3-7.3H313.8z M154.6,286.7c-4,0-7.3,3.3-7.3,7.3v22h22
		c12.1,0,22,9.9,22,22v29.4c0,4-3.3,7.3-7.3,7.3s-7.3-3.3-7.3-7.3v-29.4c0-4-3.3-7.3-7.3-7.3h-22v22c0,12.1-9.9,22-22,22H95.8
		c-4,0-7.3-3.3-7.3-7.3c0-4,3.3-7.3,7.3-7.3h29.4c4,0,7.3-3.3,7.3-7.3v-22h-22c-12.1,0-22-9.9-22-22v-29.4c0-4,3.3-7.3,7.3-7.3
		c4,0,7.3,3.3,7.3,7.3v29.4c0,4,3.3,7.3,7.3,7.3h22v-22c0-12.1,9.9-22,22-22h29.4c4,0,7.3,3.3,7.3,7.3c0,4-3.3,7.3-7.3,7.3H154.6z
		 M169.2,301.4c0,4-3.3,7.3-7.3,7.3c-4,0-7.3-3.3-7.3-7.3c0-4,3.3-7.3,7.3-7.3C165.9,294.1,169.2,297.4,169.2,301.4z M169.2,345.5
		c0,4-3.3,7.3-7.3,7.3c-4,0-7.3-3.3-7.3-7.3c0-4,3.3-7.3,7.3-7.3C165.9,338.1,169.2,341.4,169.2,345.5z M110.5,345.5
		c0-4,3.3-7.3,7.3-7.3s7.3,3.3,7.3,7.3c0,4-3.3,7.3-7.3,7.3S110.5,349.5,110.5,345.5z M110.5,301.4c0-4,3.3-7.3,7.3-7.3
		s7.3,3.3,7.3,7.3c0,4-3.3,7.3-7.3,7.3S110.5,305.4,110.5,301.4z M201.4,220.6l-7.3,14.7H85.7l-7.3-14.7H201.4z M426.2,440.9
		c-6.9,9.2-17.8,14.7-29.4,14.7H103.2c-11.5,0-22.5-5.5-29.4-14.7l-22-29.4h396.5L426.2,440.9z"/>
</g>
</svg>
