<?xml version="1.0" encoding="utf-8"?>
<!-- Generator: Adobe Illustrator 26.0.1, SVG Export Plug-In . SVG Version: 6.00 Build 0)  -->
<svg version="1.1" id="Layer_1" xmlns="http://www.w3.org/2000/svg" xmlns:xlink="http://www.w3.org/1999/xlink" x="0px" y="0px"
	 viewBox="0 0 500 500" style="enable-background:new 0 0 500 500;" xml:space="preserve">
<style type="text/css">
	.st0{fill:#6F090B;}
</style>
<g>
	<g>
		<g>
			<path class="st0" d="M312,80.3c-8.3-13.6-21.3-21.2-36.5-21.3c-8.9-0.1-17.7,2.5-25.4,7.3c-7.6-4.8-16.3-7.3-25.1-7.3h-0.3
				c-15.2,0.1-28.2,7.7-36.5,21.3c-8.5,13.9-8.8,30.9-0.7,45.6c5.7,10.5,14.5,18.7,22.2,25.9c1.3,1.2,2.5,2.4,3.8,3.6
				c4.8,4.6,9.5,8.9,14.2,13.2c4.5,4.1,9.2,8.4,13.7,12.7l8.9,8.5l8.9-8.5c4.5-4.3,9.2-8.6,13.7-12.7c4.6-4.2,9.4-8.6,14.2-13.2
				c1.2-1.2,2.5-2.4,3.8-3.6c7.7-7.2,16.4-15.5,22.2-25.9C320.7,111.1,320.4,94.1,312,80.3z"/>
		</g>
	</g>
	<g>
		<g>
			<path class="st0" d="M353.1,188.3c-32.8,0-59.5,26.6-59.5,59.5c0,2.8,0.2,5.5,0.6,8.2c2.1,15.5,10.3,29.1,22,38.4h0
				c10.1,8,23,12.8,36.9,12.8c13.9,0,26.8-4.8,36.9-12.8h0c11.7-9.3,19.9-22.9,22-38.4c0.4-2.7,0.6-5.4,0.6-8.2
				C412.6,214.9,386,188.3,353.1,188.3z"/>
		</g>
	</g>
	<g>
		<g>
			<path class="st0" d="M146.9,188.3c-32.8,0-59.5,26.6-59.5,59.5c0,2.8,0.2,5.5,0.6,8.2c2.1,15.5,10.3,29.1,22,38.4h0
				c10.1,8,23,12.8,36.9,12.8c13.9,0,26.8-4.8,36.9-12.8h0c11.7-9.3,19.9-22.9,22-38.4c0.4-2.7,0.6-5.4,0.6-8.2
				C206.3,214.9,179.7,188.3,146.9,188.3z"/>
		</g>
	</g>
	<g>
		<g>
			<path class="st0" d="M420.8,299.4c-2.8,3.7-6,7.2-9.4,10.4c-4.2,3.9-8.7,7.4-13.7,10.5c-13,8-28.3,12.7-44.7,12.7
				s-31.7-4.6-44.7-12.7c-4.9-3-9.5-6.5-13.7-10.5c-3.4-3.2-6.5-6.7-9.4-10.4c-14.5,5.6-26.9,15.6-35.5,28.3
				c-8.6-12.7-20.9-22.7-35.5-28.3c-2.8,3.7-6,7.2-9.4,10.4c-4.2,3.9-8.7,7.4-13.7,10.5c-13,8-28.3,12.7-44.7,12.7
				s-31.7-4.6-44.7-12.7c-4.9-3-9.5-6.5-13.7-10.5c-3.4-3.2-6.5-6.7-9.4-10.4c-28.2,10.9-48.3,38.3-48.3,70.3v85.9h206.3h25.7h206.3
				v-85.9C469.1,337.6,449,310.3,420.8,299.4z"/>
		</g>
	</g>
</g>
</svg>
