<?xml version="1.0" encoding="utf-8"?>
<!-- Generator: Adobe Illustrator 26.0.1, SVG Export Plug-In . SVG Version: 6.00 Build 0)  -->
<svg version="1.1" id="Layer_1" xmlns="http://www.w3.org/2000/svg" xmlns:xlink="http://www.w3.org/1999/xlink" x="0px" y="0px"
	 viewBox="0 0 500 500" style="enable-background:new 0 0 500 500;" xml:space="preserve">
<style type="text/css">
	
		.st0{clip-path:url(#SVGID_00000023264539327282659080000011857375540615825852_);fill:url(#SVGID_00000012440823504085067230000002499506288720905877_);}
	.st1{clip-path:url(#SVGID_00000023264539327282659080000011857375540615825852_);fill:#DCDCDD;}
	.st2{fill:none;stroke:#AA8445;stroke-width:4;stroke-miterlimit:10;}
</style>
<g>
	<g>
		<defs>
			<circle id="SVGID_1_" cx="250" cy="250" r="209.4"/>
		</defs>
		<clipPath id="SVGID_00000158025823946652244560000009392371190044631688_">
			<use xlink:href="#SVGID_1_"  style="overflow:visible;"/>
		</clipPath>
		
			<linearGradient id="SVGID_00000142157868881271080260000016105296513417326013_" gradientUnits="userSpaceOnUse" x1="60.9585" y1="335.5221" x2="827.7163" y2="335.5221">
			<stop  offset="0" style="stop-color:#CC9340"/>
			<stop  offset="0.134" style="stop-color:#D6A855"/>
			<stop  offset="0.4094" style="stop-color:#F0DE8B"/>
			<stop  offset="0.4827" style="stop-color:#F7ED9A"/>
			<stop  offset="0.5189" style="stop-color:#F0E290"/>
			<stop  offset="0.669" style="stop-color:#D6B769"/>
			<stop  offset="0.8045" style="stop-color:#C3984D"/>
			<stop  offset="0.9194" style="stop-color:#B7863C"/>
			<stop  offset="1" style="stop-color:#B37F36"/>
		</linearGradient>
		
			<path style="clip-path:url(#SVGID_00000158025823946652244560000009392371190044631688_);fill:url(#SVGID_00000142157868881271080260000016105296513417326013_);" d="
			M760.6,416.1c0.9,0.5,2.2,1,3.9,1.5c3.1,0.8,7.9,2,14.4,3.6c7,1.7,11.7,3.2,14.2,4.2c15.7,6.8,22.9,21,27,37.2
			c3,11.9,5.1,24,6.1,36.2c0.6,6.6,1,14.9,1.3,25c0.5,17.2-0.1,34.4-2.7,51.2c-2,13.2-4.4,26.7-7.2,40.6c0,0.2-0.2,0.4-0.5,0.4
			H455.9c-0.3,0-0.5-0.2-0.6-0.5c-2.4-8.4-4.4-16.1-5.9-22.9c-0.2-1-0.4-1-0.6,0c-1.4,8.2-2.5,15.9-3.2,23c0,0.3-0.2,0.4-0.4,0.4
			c-0.6,0.1-1.6-0.1-2.2-0.1c-123.9,0-247.9,0-371.8,0c-0.3,0-0.5-0.2-0.5-0.5c-0.3-5-0.6-10-1.1-15c-0.3-3.4-1-8.4-2.1-14.9
			C63.1,559,59,531.9,62,505.5c1.5-12.9,2.5-22,3-27.3c0.3-3.3,0.7-8.7,1.2-16.4c0.7-11.2,3.9-21.6,12.1-29.6
			c6.1-5.8,13.5-10,21.3-13.7c5-2.4,11.4-5.1,19-8.2c4.6-1.9,7.9-3.4,9.8-4.6c3.1-1.9,6.2-3.7,9.4-5.5c13.6-7.5,22-12.2,25.2-13.8
			c0.7-0.4,1.6-1,2.5-1.8c0.7-0.6,1.3-1.4,1.7-2.4c0.8-2.2,3-7.4,6.6-15.6c2.8-6.6,5.5-12.3,8.1-17.1c2-3.8,5.6-7,9.9-3.8
			c0.3,0.2,0.7,0,0.7-0.3v-37.9c0-0.3-0.1-0.6-0.3-0.8c-6.1-7.3-10.1-15.7-12-25.3c-1-5-1.6-10.4-1.8-16.1c0-0.6-0.3-1.1-0.8-1.4
			c-11.8-6.3-19.6-16-23.2-29.4c-2.8-10.2-0.8-21.1,9.2-26c0.2-0.1,0.3-0.3,0.3-0.5l-1.2-5.1c-0.1-0.5-0.2-0.5-0.3,0
			c-0.1,0.9-0.3,1.8-0.5,2.8c0,0.2-0.1,0.2-0.2,0.2c-0.4,0-0.7-0.2-0.8-0.5l-2-12.7c-0.1-0.4-0.2-0.4-0.3,0c-0.4,0.9-0.7,2-0.9,3.2
			c0,0.1-0.1,0.2-0.2,0.2l-0.2,0c-0.1,0-0.2,0-0.2-0.1c-0.9-2.8-1.4-5.8-1.4-8.9c-0.1-4.3,0-7.9,0.3-10.9c0.1-1-0.1-1-0.4-0.1
			c-0.5,1.4-0.9,2.6-1.2,3.6c-0.3,1.3-0.6,1.2-0.7,0c-1.4-12.2-0.3-24.3,3.3-36.1c0.5-1.6,0.2-1.7-0.8-0.4c-0.6,0.8-1.2,1.7-1.7,2.7
			c-0.4,0.8-0.6,0.7-0.7-0.1c-1-12.3,2.7-23.3,9-33.8c2.6-4.3,5.9-7.9,9.9-10.7c0.2-0.2,0.1-0.5-0.2-0.5c-3.1,0.6-5.4,1.2-8,3.3
			c-1.7,1.4-3.1,2.6-4,3.5c-1,1-1.1,0.8-0.5-0.4c1.3-2.4,3.3-5.3,5.4-7.8c3.7-4.6,8.2-7.4,13.5-8.6c0.7-0.2,0.7-0.3,0-0.5
			c-5.6-1.2-9.4,0.6-14,3.4c-0.8,0.5-0.9,0.3-0.4-0.4c6.2-8.6,14.9-12.9,26-13c1.8,0,2.9,0,3.3-0.1c0.3,0,0.5-0.1,0.7-0.3
			c3.2-3,6.7-5.4,10.5-7.1c0.5-0.2,0.5-0.3-0.1-0.3c-3.6,0.3-7.2,1.3-10.8,2.8c-0.1,0.1-0.3,0-0.3-0.1c0-0.1,0-0.2,0-0.2
			c0-0.1,0-0.1,0.1-0.2c2.5-2.2,6.5-4.7,11.8-7.4c4.6-2.4,9.1-3.5,13.6-3.4c2.2,0,2.2-0.3,0.2-1c-3.3-1.1-6.8-1.4-10.5-0.8
			c-1.6,0.2-2.8,0.4-3.4,0.5c-0.8,0.1-0.9-0.1-0.2-0.5c4.8-2.9,9.8-4.8,15.2-5.8c4.3-0.8,9.4-0.7,15.1,0.3c5,0.9,10,2.4,14.9,4.4
			c0.3,0.1,0.3,0,0.2-0.2c-0.9-1.4-2.2-3-3.9-4.8c-0.9-1-0.7-1.5,0.7-1.3c5.6,0.5,10.8,1.8,15.8,3.9c2,0.8,3.7,1.8,5.2,3.1
			c0,0,0.1,0,0.1,0l0.2-0.2c0.1-0.1,0.1-0.2,0-0.3l-4.8-4.8c-0.6-0.6-0.5-0.9,0.4-0.8c3.3,0.4,6,0.8,8.1,1.3
			c4.2,1.1,7.7,2.8,10.4,5.2c0.1,0.1,0.2,0.1,0.3,0l0.2-0.2c0.1-0.1,0.1-0.1,0-0.2c-2-2.2-3.7-4.2-5.3-6c-0.3-0.3-0.2-0.5,0.2-0.4
			c4.8,0.7,9.3,2.3,13.5,4.9c5.3,3.3,10.4,7.5,15.5,12.7c0.1,0.1,0.2,0.1,0.4,0c0,0,0.1-0.1,0.1-0.2c0,0,0-0.1,0-0.2
			c-1.3-2.9-2.9-5.6-4.7-8.3c-0.2-0.3-0.4-0.7-0.6-1.4c-0.3-0.9-0.1-1.1,0.7-0.6c9.5,5.9,16.5,14.1,21,24.6c0.2,0.4,0.6,0.7,1.1,0.7
			c6.9,0.1,14.7,1.4,20.5,4.6c4.1,2.2,7.9,5.8,11.4,10.5c0.2,0.2-0.1,0.5-0.3,0.4c-1.6-1-2.8-1.8-3.5-2.2c-3.5-1.9-7.1-2.7-10.8-2.2
			c-0.4,0-0.6,0.2-0.7,0.5c-0.1,0.3,0,0.5,0.3,0.5c3.8,0.4,7,1.8,9.5,4.3c3.7,3.6,6.8,7.7,9.2,12.3c0.2,0.3,0,0.7-0.2,0.5
			c-3.7-3.3-6.7-5.9-11.4-7.1c-1.1-0.3-1.3,0-0.4,0.8c1.1,1.1,3.2,2.9,4.4,4.5c7.9,10.2,12.1,22.7,11,35.7c0,0.2-0.1,0.3-0.3,0.3
			c-0.1,0-0.2,0-0.2-0.1c0,0-0.1-0.1-0.1-0.2c-0.4-1.3-0.8-2.2-1.5-2.9c-0.3-0.4-0.4-0.3-0.3,0.2c3.1,10.4,3.9,21.1,2.3,32
			c-0.1,0.9-0.3,0.9-0.5,0c-0.3-1.3-0.5-2.3-0.8-3c-0.7-2.1-1-2.1-0.8,0.2c0.4,6.3-0.1,12.4-1.6,18.4c-0.3,1-0.5,1-0.7,0
			c-0.2-0.8-0.3-1.8-0.4-3c0-0.1,0-0.1-0.1-0.1h-0.3c-0.2,0-0.3,0.1-0.3,0.3c-0.4,4.4-1.2,8.8-2.2,13.1c0,0.1-0.1,0.1-0.2,0.2
			l-0.3,0c-0.2,0-0.3-0.1-0.3-0.3c0-1.4-0.1-2.8-0.4-4.4c-0.1-0.5-0.2-0.5-0.4,0c-0.4,1.3-0.8,3.3-1.1,6c0,0.4,0.1,0.7,0.4,0.9
			c0.4,0.3,1.3,0.8,2.7,1.5c6.4,3.3,8.4,13.3,7.5,19.9c-2,13.4-8.4,23.8-19.2,31.3c-1.6,1.1-3.3,2-5,2.5c-0.5,0.2-0.8,0.5-0.8,1
			c-0.3,5.7-0.5,8.6-0.5,8.9c-1.3,11.7-5,21.8-11,30.3c-0.7,1-1.4,1.8-2.1,2.4c-0.4,0.3-0.6,0.8-0.6,1.3v38c0,0.2,0.3,0.4,0.5,0.3
			c6.4-4.1,10.1,2.8,12.3,7.7c4.4,9.8,8.7,19.8,12.8,30c0.2,0.5,0.9,1.1,2,1.7c18.4,9.8,30.1,16.3,35.2,19.3
			c4.8,2.9,8.1,4.7,9.7,5.4c10.5,4.5,21.6,8.8,31.6,14.5c10.2,5.8,17.1,14.3,19.5,25.9c0.9,4.6,1.5,9.6,1.8,15
			c0.1,2.5,0.4,2.5,0.9,0.1c1.3-6.8,3.8-13.7,7.3-20.8c5.5-11,14.1-18.3,25.7-22.1c0.2,0,0.3-0.1,0.3-0.2c0,0,0-0.1,0-0.2
			c0,0,0,0,0,0c-10.6,0.6-19.5,0.2-27.6-6.6c-4.2-3.5-6.1-8.5-5.8-14.9c0.1-1.7,0.3-2.7,0.7-3.2c0.1-0.1,0.2-0.1,0.3,0
			c0,0,0.1,0.1,0.1,0.2c0,0.1,0,0.1,0,0.2c-0.5,2,0.2,3.6,2.1,4.6c5.9,3.2,14.3,1.8,20.3-1c1.7-0.8,3.2-1.9,4.7-3.2
			c1.3-1.2,2.6-2.6,3.9-4.2c1.1-1.3,0.9-1.7-0.8-1c-5.9,2.4-13.6,0.6-17.5-4.5c-0.7-1-1.1-1.8-1.2-2.7c-0.1-1.5,0.2-1.6,0.9-0.3
			c1.2,2.1,3.5,2.9,6.8,2.4c4.9-0.7,6.5-5.9,6.7-10c0.2-3.8,0.5-7.4,0.9-10.6c1-8.4,4.7-15.6,10.9-21.7c4.3-4.2,8.6-7.4,13-9.8
			c0,0,0,0,0,0c0-0.1,0-0.2-0.1-0.2c0,0-0.1,0-0.1,0c-8.1,1.7-16,1.7-23.4,0.3c-6.5-1.3-11.8-4.2-15.7-9.6c-2.7-3.7-4.4-8-5.1-12.8
			c-0.9-5.9-0.3-12.2,3-17c0.2-0.3,0.6-0.2,0.8,0.1c1.5,4.2,4.1,7.8,7.8,10.6c4.3,3.4,11,3.5,16,2.1c7.8-2.2,16.5-7.1,20.1-14.7
			c0.9-1.8,1.4-4.5,1.6-8.1c0.3-5.8,0.1-10.8-0.7-15.1c-0.4-2-1.9-9.2-4.7-21.5c-2.4-10.6-3.1-22.5-2.2-35.5
			c0.3-4.6,1.1-9.9,2.5-15.9c4.6-20.4,11.2-39.8,19.8-58.2c6.5-13.7,15.2-26.5,25.2-38.1c11.1-12.9,24.4-23.9,39.8-31.2
			c16.9-7.9,34.3-10.8,52.4-8.5c5.7,0.7,12,3.2,19,7.3c0.3,0.2,0.6,0.3,0.8,0.3c0.2,0,0.5,0.1,1,0.1c0.4,0,4.9,0.3,13.4,0.9
			c7.6,0.5,14.5,2.4,20.9,5.7c13,6.8,23.5,18.9,31,31.5c6.4,10.7,11.5,22.3,15.4,34.6c2.9,9.1,5.1,16.9,6.5,23.3
			c3.4,15,6.3,27.3,8.6,36.7c2.8,11.2,6.8,24.4,11.9,39.5c5.9,17.5,9.4,27.8,10.6,31c2.3,6.5,4.4,13.6,6.3,21.5
			c2.3,9.4,3.2,18.3,2.7,26.7c-0.4,7.4-2.4,14.6-5.8,21.5c-2.3,4.5-4.2,8.1-5.9,10.7c-2.2,3.4-5.5,8.4-10,15.1
			c-2.5,3.7-4.7,8.8-4.2,13.2c1,9.1,11.2,12.8,19.4,11.8c1.4-0.2,2.5-0.7,3.4-1.5c4.1-3.7,3.6-9.1,1.5-13.9c-0.2-0.4-1-2.3-2.5-5.9
			c-0.1-0.1,0-0.3,0.2-0.4c0.2-0.1,0.4,0,0.6,0.1c3.7,2.7,7.5,6.2,9,10.7c5.1,15.6-9.8,24.9-22.1,29.8c-3.2,1.3-6.7,2.1-10.7,2.6
			C760.4,415.8,760.3,415.9,760.6,416.1L760.6,416.1z"/>
		<path style="clip-path:url(#SVGID_00000158025823946652244560000009392371190044631688_);fill:#DCDCDD;" d="M338.1,239.8
			c-0.2,1,0,1.1,0.5,0.2c2.6-4.6,4.7-9,6.4-13.3c0.5-1.2,0.8-1.1,0.9,0.2c0,0.3,0.2,0.8,0.4,1.2c0.6,1.1,0.8,1,0.8-0.2
			c0-1.7,0.3-3.5,1.1-5.4c1.4-3.6,2.7-6.8,3.9-9.7c0.1-0.3,0.3-0.4,0.6-0.2c6,2.8,8.3,9.9,7.5,16.1c-1.9,13.3-8.4,23.3-19.5,30.1
			c-2,1.2-3.4,2-4.2,2.4c-1.7,0.8-2,2-2,3.5c-0.1,7.8-1.1,14.8-3,21.2c-2.7,8.9-8.2,16.5-14.8,24.2c-8.4,9.9-17.8,17.8-28,23.8
			c-3.4,2-7.6,3.7-12.6,5.2c-3.8,1.1-8.2,1.8-13.4,2c-6.4,0.2-11.9-0.1-16.4-0.9c-6.6-1.2-13.2-3.9-19.6-8.1
			c-14.2-9.2-25.9-20.7-35-34.4c-6.6-10-8.5-22.3-8.7-33.9c0-1.3-0.6-2-1.8-2.7c-10.4-5-17.6-13-21.7-23.9
			c-2.9-7.7-3.5-16.2,2.4-22.3c1-1,2.1-1.6,3.3-1.7c0.3,0,0.5,0.1,0.6,0.4c0.9,2.6,2.1,5.8,3.7,9.5c0.6,1.4,0.9,3.2,0.8,5.3
			c0,0.3,0.3,0.5,0.6,0.4l0.2-0.1c0,0,0.1-0.1,0.1-0.1c0.1-0.8,0.4-1.6,0.9-2.4c0.2-0.4,0.4-0.3,0.5,0c1.1,3.4,2.4,6.4,3.8,8.9
			c1.3,2.3,2.3,4.2,3.2,5.5c0.2,0.2,0.5,0.1,0.5-0.2c-2.5-11.5-3.6-23.8-3.4-37.1c0.1-3.8,0.6-6.8,1.5-9.1c1.7-4.1,4-7.4,7-9.9
			c0.4-0.3,1.3-0.8,2.6-1.4c0.2-0.1,0.4-0.3,0.3-0.6c-0.3-10.2-0.2-18.8,0.5-26c0.9-9.6,4.3-18,10.3-25.2c1.2-1.5,2.3-2.6,3.1-3.3
			c1.4-1.2,2.5-2.3,3.3-3.2c0.3-0.3,0.8-0.2,0.9,0.3l0.3,2c0,0.3,0.4,0.4,0.6,0.2c3-2,6.2-3.8,9.5-5.4c1.8-0.8,3-1.1,4.9-0.5
			c5,1.5,10.5,1.9,16.5,1.2c1-0.1,1.1,0.1,0.3,0.8c-0.5,0.4-1.4,0.9-2.5,1.5c-1.6,0.7-1.5,1.3,0.2,1.6c5.7,1.1,9.9,1.3,16.7,1.5
			c9.5,0.3,18.7,0,27.6-1.2c0.7-0.1,1.8,0,3.3,0.4c7.1,1.8,14.8,2,22.2,1c0.3,0,0.6,0.1,0.8,0.4c4.3,5.6,9.3,10.5,15.2,14.7
			c0.7,0.5,1.3,1.1,1.7,2c0.7,1.8,1.2,3.7,1.7,5.8c2,9.7,2.9,20,2.8,31c0,0.3,0.2,0.5,0.4,0.6c4,1.7,7.1,4.8,9.3,9.3
			c1.6,3.4,2.7,6.3,2.9,10.3C341.2,214.7,340.3,227.3,338.1,239.8L338.1,239.8z"/>
		<path style="clip-path:url(#SVGID_00000158025823946652244560000009392371190044631688_);fill:#DCDCDD;" d="M320.2,313.5
			c0.1,10.9,0.1,20,0.1,27.4c0,6.9-0.4,12.2-1,15.9c-1.5,8.5-4.7,16.5-9.6,24.2c-3.2,5.1-6,9.1-8.4,12.2
			c-6.6,8.5-12.5,16.3-17.8,23.4c-8.9,12-17,24.5-24.1,37.3c-0.1,0.2-0.4,0.2-0.5,0c-8.4-15.4-17.6-30-28.5-43.5
			c-3.4-4.3-8.2-10.4-14.5-18.4c-3.3-4.1-6.4-8.8-9.6-13.8c-5.6-9.2-8.6-19.1-8.7-29.8c-0.2-10.4-0.2-22.3-0.1-35.6
			c0-0.6,0.2-0.7,0.6-0.2c9.4,11,20.2,19.7,32.5,26.2c5.6,3,11.9,4.8,18.7,5.5c8.5,0.9,16.6,0.7,24.2-0.7c5.2-0.9,10.5-2.8,15.7-5.6
			c11.5-6.2,21.6-14.5,30.3-24.7C320,312.8,320.2,312.9,320.2,313.5L320.2,313.5z"/>
	</g>
	<circle class="st2" cx="250" cy="250" r="209.4"/>
</g>
</svg>
