<?xml version="1.0" encoding="utf-8"?>
<!-- Generator: Adobe Illustrator 26.0.1, SVG Export Plug-In . SVG Version: 6.00 Build 0)  -->
<svg version="1.1" id="Layer_1" xmlns="http://www.w3.org/2000/svg" xmlns:xlink="http://www.w3.org/1999/xlink" x="0px" y="0px"
	 viewBox="0 0 500 500" style="enable-background:new 0 0 500 500;" xml:space="preserve">
<style type="text/css">
	.st0{fill:none;stroke:#AA8445;stroke-width:4;stroke-miterlimit:10;}
	
		.st1{clip-path:url(#SVGID_00000043432053681140077340000011238380165583809163_);fill:url(#SVGID_00000121994294627608725850000004716716448633384095_);}
	.st2{clip-path:url(#SVGID_00000043432053681140077340000011238380165583809163_);fill:#DCDCDD;}
</style>
<g>
	<circle class="st0" cx="250" cy="250" r="209"/>
	<g>
		<defs>
			<circle id="SVGID_1_" cx="250" cy="250" r="209"/>
		</defs>
		<clipPath id="SVGID_00000119090857993710523320000008993828501286961325_">
			<use xlink:href="#SVGID_1_"  style="overflow:visible;"/>
		</clipPath>
		
			<linearGradient id="SVGID_00000088813024930077915240000009599446374224141226_" gradientUnits="userSpaceOnUse" x1="-322.054" y1="335.344" x2="443.1075" y2="335.344">
			<stop  offset="0" style="stop-color:#CC9340"/>
			<stop  offset="0.134" style="stop-color:#D6A855"/>
			<stop  offset="0.4094" style="stop-color:#F0DE8B"/>
			<stop  offset="0.4827" style="stop-color:#F7ED9A"/>
			<stop  offset="0.5189" style="stop-color:#F0E290"/>
			<stop  offset="0.669" style="stop-color:#D6B769"/>
			<stop  offset="0.8045" style="stop-color:#C3984D"/>
			<stop  offset="0.9194" style="stop-color:#B7863C"/>
			<stop  offset="1" style="stop-color:#B37F36"/>
		</linearGradient>
		
			<path style="clip-path:url(#SVGID_00000119090857993710523320000008993828501286961325_);fill:url(#SVGID_00000088813024930077915240000009599446374224141226_);" d="
			M376.1,415.8c0.9,0.5,2.2,1,3.9,1.5c3.1,0.8,7.9,2,14.3,3.6c7,1.7,11.7,3.1,14.2,4.2c15.6,6.8,22.8,21,27,37.1
			c3,11.9,5.1,23.9,6.1,36.2c0.6,6.6,1,14.9,1.3,24.9c0.5,17.1-0.1,34.3-2.7,51.1c-2,13.1-4.4,26.6-7.2,40.5c0,0.2-0.2,0.4-0.5,0.4
			H72.1c-0.3,0-0.5-0.2-0.6-0.5c-2.4-8.4-4.3-16-5.9-22.9c-0.2-1-0.4-1-0.6,0c-1.4,8.2-2.5,15.8-3.2,23c0,0.3-0.2,0.4-0.4,0.4
			c-0.6,0.1-1.6-0.1-2.2-0.1c-123.7,0-247.4,0-371.1,0c-0.3,0-0.5-0.2-0.5-0.5c-0.3-5-0.6-10-1.1-15c-0.3-3.4-1-8.3-2.1-14.9
			c-4.4-26.7-8.5-53.7-5.5-80.1c1.5-12.8,2.5-21.9,2.9-27.3c0.3-3.3,0.7-8.7,1.2-16.4c0.7-11.1,3.9-21.6,12.1-29.5
			c6.1-5.8,13.5-10,21.2-13.6c5-2.4,11.4-5.1,19-8.2c4.6-1.9,7.9-3.4,9.8-4.6c3.1-1.9,6.2-3.7,9.4-5.4c13.6-7.5,22-12.1,25.1-13.8
			c0.7-0.4,1.6-1,2.5-1.8c0.7-0.6,1.3-1.4,1.7-2.4c0.8-2.2,3-7.4,6.6-15.6c2.8-6.6,5.5-12.3,8.1-17.1c2-3.8,5.6-7,9.9-3.8
			c0.3,0.2,0.7,0,0.7-0.3v-37.8c0-0.3-0.1-0.6-0.3-0.8c-6.1-7.3-10.1-15.7-12-25.2c-1-5-1.6-10.4-1.8-16c0-0.6-0.3-1.1-0.8-1.3
			c-11.8-6.3-19.5-16-23.1-29.3c-2.8-10.2-0.8-21.1,9.2-26c0.2-0.1,0.3-0.3,0.3-0.5l-1.2-5c-0.1-0.5-0.2-0.5-0.3,0
			c-0.1,0.9-0.3,1.8-0.5,2.8c0,0.2-0.1,0.2-0.2,0.2c-0.4,0-0.7-0.2-0.8-0.5l-2-12.6c-0.1-0.4-0.2-0.4-0.3,0c-0.4,0.9-0.7,2-0.9,3.2
			c0,0.1-0.1,0.2-0.2,0.2l-0.2,0c-0.1,0-0.2,0-0.2-0.1c-0.9-2.8-1.4-5.8-1.4-8.9c-0.1-4.3,0-7.9,0.3-10.9c0.1-1-0.1-1-0.4-0.1
			c-0.5,1.4-0.9,2.6-1.1,3.6c-0.3,1.3-0.6,1.2-0.7,0c-1.3-12.2-0.3-24.2,3.3-36c0.5-1.6,0.2-1.7-0.8-0.4c-0.6,0.8-1.2,1.7-1.7,2.7
			c-0.4,0.8-0.6,0.7-0.7-0.1c-1-12.3,2.7-23.3,9-33.7c2.6-4.3,5.9-7.9,9.9-10.7c0.2-0.2,0.1-0.5-0.2-0.5c-3.1,0.6-5.3,1.2-8,3.3
			c-1.7,1.4-3.1,2.6-4,3.5c-1,0.9-1.1,0.8-0.5-0.4c1.3-2.4,3.3-5.3,5.3-7.7c3.7-4.5,8.2-7.4,13.5-8.5c0.7-0.2,0.7-0.3,0-0.5
			c-5.6-1.2-9.4,0.6-14,3.4c-0.8,0.5-0.9,0.3-0.4-0.4c6.2-8.6,14.8-12.9,26-12.9c1.8,0,2.9,0,3.3-0.1c0.3,0,0.5-0.1,0.7-0.3
			c3.2-3,6.7-5.4,10.5-7.1c0.5-0.2,0.5-0.3-0.1-0.3c-3.6,0.3-7.2,1.3-10.8,2.8c-0.1,0.1-0.3,0-0.3-0.1c0-0.1,0-0.2,0-0.2
			c0-0.1,0-0.1,0.1-0.2c2.5-2.2,6.5-4.7,11.8-7.4c4.6-2.3,9.1-3.5,13.5-3.4c2.2,0,2.2-0.3,0.2-1c-3.3-1.1-6.8-1.3-10.5-0.8
			c-1.6,0.2-2.8,0.4-3.4,0.5c-0.8,0.1-0.9-0.1-0.2-0.5c4.7-2.9,9.8-4.8,15.1-5.8c4.3-0.8,9.4-0.7,15.1,0.3c5,0.9,10,2.4,14.8,4.4
			c0.3,0.1,0.3,0,0.2-0.2c-0.9-1.4-2.2-3-3.9-4.8c-0.9-1-0.7-1.5,0.7-1.3c5.5,0.5,10.8,1.8,15.8,3.9c2,0.8,3.7,1.8,5.2,3.1
			c0,0,0.1,0,0.1,0l0.2-0.2c0.1-0.1,0.1-0.2,0-0.3l-4.8-4.8c-0.6-0.6-0.5-0.9,0.4-0.8c3.3,0.4,6,0.8,8.1,1.3
			c4.2,1.1,7.6,2.8,10.4,5.2c0.1,0.1,0.2,0.1,0.3,0l0.2-0.2c0.1-0.1,0.1-0.1,0-0.2c-1.9-2.2-3.7-4.2-5.3-6c-0.3-0.3-0.2-0.5,0.2-0.4
			c4.8,0.7,9.3,2.3,13.5,4.9c5.2,3.2,10.4,7.5,15.4,12.7c0.1,0.1,0.2,0.1,0.4,0c0,0,0.1-0.1,0.1-0.2c0,0,0-0.1,0-0.2
			c-1.3-2.9-2.9-5.6-4.7-8.2c-0.2-0.3-0.4-0.7-0.6-1.4c-0.3-0.9-0.1-1.1,0.7-0.6c9.4,5.9,16.4,14,21,24.5c0.2,0.4,0.6,0.7,1.1,0.7
			c6.8,0.1,14.7,1.4,20.5,4.6c4.1,2.2,7.8,5.7,11.3,10.5c0.2,0.2-0.1,0.5-0.3,0.4c-1.6-1-2.8-1.8-3.5-2.2c-3.5-1.9-7-2.7-10.7-2.2
			c-0.4,0-0.6,0.2-0.7,0.5c-0.1,0.3,0,0.5,0.3,0.5c3.8,0.4,6.9,1.8,9.5,4.3c3.7,3.6,6.8,7.7,9.2,12.3c0.2,0.3,0,0.7-0.2,0.5
			c-3.7-3.3-6.7-5.9-11.3-7.1c-1.1-0.3-1.3,0-0.4,0.8c1.1,1.1,3.2,2.9,4.4,4.5c7.9,10.2,12.1,22.6,10.9,35.6c0,0.2-0.1,0.3-0.3,0.3
			c-0.1,0-0.2,0-0.2-0.1c0,0-0.1-0.1-0.1-0.2c-0.4-1.3-0.8-2.2-1.5-2.9c-0.3-0.4-0.4-0.3-0.3,0.2c3.1,10.4,3.9,21,2.3,32
			c-0.1,0.9-0.3,0.9-0.5,0c-0.3-1.3-0.5-2.3-0.8-3c-0.7-2.1-1-2.1-0.8,0.2c0.4,6.3-0.1,12.4-1.6,18.3c-0.3,1-0.5,1-0.7,0
			c-0.2-0.8-0.3-1.8-0.4-3c0-0.1,0-0.1-0.1-0.1h-0.3c-0.2,0-0.3,0.1-0.3,0.3c-0.4,4.4-1.2,8.8-2.2,13.1c0,0.1-0.1,0.1-0.2,0.2
			l-0.3,0c-0.2,0-0.3-0.1-0.3-0.3c0-1.4-0.1-2.8-0.4-4.4c-0.1-0.5-0.2-0.5-0.4,0c-0.4,1.3-0.8,3.3-1.1,6c0,0.4,0.1,0.7,0.4,0.9
			c0.4,0.3,1.3,0.8,2.7,1.5c6.3,3.3,8.4,13.3,7.4,19.8c-2,13.3-8.4,23.8-19.2,31.3c-1.6,1.1-3.3,2-5,2.5c-0.5,0.2-0.8,0.5-0.8,1
			c-0.3,5.7-0.5,8.6-0.5,8.8c-1.3,11.7-5,21.8-11,30.3c-0.7,1-1.4,1.8-2.1,2.4c-0.4,0.3-0.6,0.8-0.6,1.3v37.9c0,0.2,0.3,0.4,0.5,0.3
			c6.4-4.1,10,2.8,12.3,7.7c4.4,9.8,8.7,19.8,12.8,29.9c0.2,0.5,0.9,1.1,1.9,1.7c18.3,9.8,30,16.2,35.1,19.3c4.8,2.9,8,4.7,9.7,5.4
			c10.4,4.5,21.6,8.8,31.5,14.5c10.1,5.8,17.1,14.2,19.4,25.9c0.9,4.6,1.5,9.6,1.8,15c0.1,2.5,0.4,2.5,0.9,0.1
			c1.3-6.8,3.7-13.7,7.3-20.8c5.5-11,14-18.3,25.6-22c0.2,0,0.3-0.1,0.3-0.2c0,0,0-0.1,0-0.2c0,0,0,0,0,0
			c-10.6,0.6-19.4,0.2-27.6-6.6c-4.2-3.5-6.1-8.5-5.8-14.8c0.1-1.7,0.3-2.7,0.7-3.1c0.1-0.1,0.2-0.1,0.3,0c0,0,0.1,0.1,0.1,0.2
			c0,0.1,0,0.1,0,0.2c-0.5,2,0.2,3.6,2.1,4.6c5.9,3.2,14.3,1.8,20.2-0.9c1.7-0.8,3.2-1.9,4.7-3.2c1.3-1.2,2.6-2.6,3.9-4.2
			c1.1-1.3,0.9-1.7-0.8-1c-5.9,2.3-13.6,0.6-17.5-4.5c-0.7-0.9-1.1-1.8-1.2-2.7c-0.1-1.5,0.2-1.5,0.9-0.3c1.2,2.1,3.5,2.9,6.8,2.4
			c4.8-0.7,6.5-5.9,6.7-10c0.2-3.8,0.5-7.4,0.9-10.6c1-8.3,4.7-15.6,10.9-21.6c4.3-4.2,8.6-7.4,12.9-9.8c0,0,0,0,0,0
			c0-0.1,0-0.2-0.1-0.2c0,0-0.1,0-0.1,0c-8.1,1.7-15.9,1.7-23.4,0.3c-6.5-1.3-11.8-4.2-15.7-9.6c-2.7-3.7-4.4-8-5.1-12.8
			c-0.9-5.9-0.3-12.2,3-16.9c0.2-0.3,0.6-0.2,0.8,0.1c1.5,4.2,4.1,7.8,7.8,10.6c4.3,3.4,11,3.5,16,2.1c7.8-2.1,16.5-7.1,20.1-14.7
			c0.9-1.8,1.4-4.5,1.6-8c0.3-5.8,0.1-10.8-0.7-15.1c-0.4-2-1.9-9.2-4.7-21.4c-2.4-10.6-3.1-22.4-2.2-35.4c0.3-4.6,1.1-9.9,2.5-15.8
			c4.5-20.4,11.2-39.7,19.8-58.1c6.5-13.7,15.2-26.5,25.1-38.1c11.1-12.9,24.3-23.9,39.7-31.1c16.8-7.9,34.2-10.7,52.3-8.4
			c5.7,0.7,12,3.1,18.9,7.3c0.3,0.2,0.6,0.3,0.8,0.3c0.2,0,0.5,0.1,1,0.1c0.4,0,4.8,0.3,13.4,0.9c7.6,0.5,14.5,2.4,20.8,5.7
			c12.9,6.8,23.4,18.8,30.9,31.5c6.3,10.7,11.5,22.2,15.4,34.6c2.9,9.1,5.1,16.8,6.5,23.2c3.4,15,6.3,27.2,8.6,36.6
			c2.8,11.2,6.8,24.4,11.9,39.4c5.9,17.4,9.4,27.7,10.6,30.9c2.3,6.5,4.4,13.6,6.3,21.5c2.3,9.4,3.2,18.3,2.7,26.6
			c-0.4,7.4-2.4,14.6-5.8,21.4c-2.3,4.5-4.2,8.1-5.9,10.7c-2.2,3.4-5.5,8.4-10,15.1c-2.5,3.7-4.7,8.8-4.2,13.2
			c1,9.1,11.2,12.7,19.3,11.7c1.4-0.2,2.5-0.7,3.4-1.5c4.1-3.7,3.6-9.1,1.5-13.8c-0.2-0.4-1-2.3-2.5-5.9c-0.1-0.1,0-0.3,0.2-0.4
			c0.2-0.1,0.4,0,0.6,0.1c3.7,2.7,7.5,6.1,9,10.7c5.1,15.6-9.8,24.9-22.1,29.8c-3.2,1.3-6.7,2.1-10.7,2.6
			C375.9,415.5,375.9,415.6,376.1,415.8L376.1,415.8z"/>
		<path style="clip-path:url(#SVGID_00000119090857993710523320000008993828501286961325_);fill:#DCDCDD;" d="M223.2,212.6l0.2,0.2
			c0,0,0,0,0,0c7.2-5.6,13.8-10.9,19.6-15.8c6.9-5.9,13.7-12.6,20.3-20c8.9-10,16.5-21.1,23-33.3c0.2-0.4,0.4-0.4,0.6,0
			c13.5,19.3,24.8,39.6,33.8,60.9c4.4,10.4,7.1,21,8.1,31.7c0.6,6.3,0.6,12.8,0.1,19.6c-0.4,5.1-1.4,10.3-2.8,15.7
			c-3,10.7-7.8,20.4-14.4,29c-10.6,13.8-25.8,25.3-41.3,33.3c-8.1,4.2-16.3,5.5-24.8,4.1c-3.7-0.6-8.1-2.4-13.3-5.3
			c-12.3-6.8-22.9-14.8-31.9-23.9c-14.6-14.8-22.4-32.6-23.5-53.4c-0.1-1.1-0.2-2.1,0.6-3.1c1.9-2.3,4.3-5.6,6.6-8.2
			c5.2-5.8,10.5-11.5,15.9-17.2c8.7-9.1,20.7-21.7,36-37.6c0.9-0.9,1.4-1.4,1.6-1.6c1.6-1.7,1.9-1.5,1,0.7
			c-3.7,8.9-8.9,16.9-15.4,24.1C223.2,212.4,223.2,212.5,223.2,212.6L223.2,212.6z"/>
		<path style="clip-path:url(#SVGID_00000119090857993710523320000008993828501286961325_);fill:#DCDCDD;" d="M191.2,394.9
			c8.5-7.6,13.4-18.6,15.2-29.9c0.4-2.5,0.6-6.6,0.6-12.3c0-3.8,0-14.1,0-30.9c0-0.4,0.2-0.7,0.7-0.7c0.4,0,0.8,0.2,1.4,0.6
			c5.7,4.6,12.4,9.2,20.2,13.7c4.9,2.8,8.9,4.6,12.1,5.5c4,1,8.4,1.5,13.2,1.3c6.2-0.3,12-1.8,17.2-4.5c9-4.7,17.4-10.2,25.1-16.3
			c0.3-0.2,0.7,0,0.7,0.3c0,4.8,0,12.5,0,23.3c0,3.3,0.2,7.6,0.6,13c0.4,5.5,0.9,9.8,1.7,12.9c3.7,15.3,13,26.3,27.8,33
			c0.3,0.1,0.6,0.7,1,1.6c2.1,5.5,1.4,10.5-2.1,15.1c-1.5,2-4.4,4.5-6.7,6c-4.7,3.1-9.8,5.7-15.3,7.9c-11.5,4.6-23.3,7.9-35.3,10.1
			c-10.8,2-21.3,2.5-31.5,1.7c-4.9-0.4-10.2-1.4-15.9-3c-10.7-3-21.2-7.4-31.7-13.2c-5.6-3.1-13-7.8-15.2-13.3
			c-1.3-3.3-1.7-10.8,2.4-12.8C182.9,401.1,187.5,398.1,191.2,394.9L191.2,394.9z"/>
	</g>
</g>
</svg>
