<?xml version="1.0" encoding="utf-8"?>
<!-- Generator: Adobe Illustrator 26.0.1, SVG Export Plug-In . SVG Version: 6.00 Build 0)  -->
<svg version="1.1" id="Layer_1" xmlns="http://www.w3.org/2000/svg" xmlns:xlink="http://www.w3.org/1999/xlink" x="0px" y="0px"
	 viewBox="0 0 500 500" style="enable-background:new 0 0 500 500;" xml:space="preserve">
<style type="text/css">
	.st0{fill:#6F090B;}
</style>
<g>
	<g>
		<path class="st0" d="M178.7,168.9h142.6c9.7,0,17.6-7.9,17.6-17.6v-7.2c0-4.7-3.8-8.4-8.4-8.4c-62.2,0-107.2,0-160.9,0
			c-4.7,0-8.4,3.8-8.4,8.4v7.2C161.1,161,169,168.9,178.7,168.9L178.7,168.9z"/>
		<path class="st0" d="M258.2,63.2c-1.9-2.7-4.9-4.3-8.2-4.3c-3.3,0-6.3,1.6-8.2,4.3l-41.6,60.1h99.5L258.2,63.2z"/>
		<path class="st0" d="M154.5,214.4h191c9.7,0,17.6-7.9,17.6-17.6v-7.2c0-4.7-3.8-8.4-8.4-8.4c-43.5,0-165.7,0-209.3,0
			c-4.7,0-8.4,3.8-8.4,8.4v7.2C136.9,206.5,144.8,214.4,154.5,214.4L154.5,214.4z"/>
		<path class="st0" d="M128.7,259.9h242.5c9.7,0,17.6-7.9,17.6-17.6v-7.2c0-4.7-3.8-8.4-8.4-8.4c-89.2,0-156.8,0-260.8,0
			c-4.7,0-8.4,3.8-8.4,8.4v7.2C111.2,252,119.1,259.9,128.7,259.9z"/>
		<path class="st0" d="M438.4,441.3h-33.7v-13.8c0-14.2-11.5-25.8-25.8-25.8h-11.2V272.2h-48.3v129.4H180.7V272.2h-48.3v129.4h-11.2
			c-14.2,0-25.8,11.5-25.8,25.8v13.8H61.6c-3.4,0-6.2,2.8-6.2,6.2c0,3.4,2.8,6.2,6.2,6.2h376.8c3.4,0,6.2-2.8,6.2-6.2
			C444.5,444,441.8,441.3,438.4,441.3z"/>
	</g>
</g>
</svg>
