<?xml version="1.0" encoding="utf-8"?>
<!-- Generator: Adobe Illustrator 26.0.1, SVG Export Plug-In . SVG Version: 6.00 Build 0)  -->
<svg version="1.1" id="Layer_1" xmlns="http://www.w3.org/2000/svg" xmlns:xlink="http://www.w3.org/1999/xlink" x="0px" y="0px"
	 viewBox="0 0 512 512" style="enable-background:new 0 0 512 512;" xml:space="preserve">
<style type="text/css">
	.st0{fill:#6F090B;}
	.st1{fill:#FFEE80;}
</style>
<path class="st0" d="M457.3,32.2h-27.6V15.1C429.8,6.8,423,0,414.7,0s-15.1,6.8-15.1,15.1v17.1h-29.7V15.1c0-8.3-6.8-15.1-15.1-15.1
	c-8.3,0-15.1,6.8-15.1,15.1v17.1H172.7V15.1c0-8.3-6.8-15.1-15.1-15.1c-8.3,0-15.1,6.8-15.1,15.1v17.1h-29.7V15.1
	c0-8.3-6.8-15.1-15.1-15.1c-8.3,0-15.1,6.8-15.1,15.1v17.1H54.9C27.9,32.2,6,54.1,6,81.1v382c0,27,21.9,48.9,48.9,48.9h402.5
	c27,0,48.9-21.9,48.9-48.9v-382C506.2,54.1,484.3,32.2,457.3,32.2z M476,463.1c0,10.3-8.4,18.7-18.7,18.7H54.9
	c-10.3,0-18.7-8.4-18.7-18.7V157.9H476V463.1z M36.2,81.1c0-10.3,8.4-18.7,18.7-18.7h27.6v17.1c0,8.3,6.8,15.1,15.1,15.1
	c8.3,0,15.1-6.8,15.1-15.1V62.4h29.7v17.1c0,8.3,6.8,15.1,15.1,15.1c8.3,0,15.1-6.8,15.1-15.1V62.4h166.9v17.1
	c0,8.3,6.8,15.1,15.1,15.1c8.3,0,15.1-6.8,15.1-15.1V62.4h29.7v17.1c0,8.3,6.8,15.1,15.1,15.1c8.4,0,15.1-6.8,15.1-15.1V62.4h27.6
	c10.3,0,18.7,8.4,18.7,18.7v46.6H36.2V81.1z"/>
<g>
	<g>
		<path class="st1" d="M331.9,312.5c0,41.9-34,75.9-75.9,75.9s-75.9-34-75.9-75.9s34-75.9,75.9-75.9c27.1,0,50.9,14.2,64.3,35.6
			c2.8,4.5,6.3,11.1,8.7,19.5C331.4,300,331.9,307.3,331.9,312.5z"/>
	</g>
	<g>
		<path d="M256,231.9c-44.5,0-80.6,36.2-80.6,80.6c0,35,22.4,64.9,53.7,76c8.3,3,17.6,4.7,27,4.6c44.5,0,80.6-36.2,80.6-80.6
			c0-2.6-2.1-4.7-4.7-4.7c-2.6,0-4.7,2.1-4.7,4.7c0,34.6-24.9,63.6-57.7,69.9c8.4-4.4,16-10.9,22.3-19.2
			c9.7-12.7,14.5-28.2,13.4-43.5c-1.1-15.8-8.3-30.1-20.3-40.3c-9.9-8.4-22.4-12.5-35.4-11.5c-12.9,1-24.7,7-33.1,16.9
			c-14.2,16.7-12.2,41.9,4.5,56.1c13.8,11.7,34.5,10.1,46.3-3.7c9.7-11.4,8.3-28.6-3.1-38.3c-2-1.7-5-1.5-6.7,0.5
			c-1.7,2-1.5,5,0.5,6.7c7.4,6.3,8.3,17.5,2,25c-8.3,9.8-23.1,11-32.9,2.6c-12.7-10.9-14.3-30-3.4-42.8c6.8-8,16.2-12.8,26.7-13.6
			c10.4-0.8,20.5,2.4,28.5,9.2c10,8.5,16,20.5,17,33.7c0.9,13-3.2,26.2-11.5,37.1c-12.9,16.9-31.4,24.8-52.1,22.2
			c-27.5-9.8-47.3-36.2-47.3-67c0-39.2,31.9-71.2,71.2-71.2c24.6,0,47.2,12.5,60.3,33.4c1.4,2.2,4.3,2.9,6.5,1.5
			c2.2-1.4,2.9-4.3,1.5-6.5C309.5,246,283.9,231.9,256,231.9L256,231.9z"/>
		<path d="M256.4,220.9c2.6,0,4.7-2.1,4.7-4.7V196c0-2.6-2.1-4.7-4.7-4.7c-2.6,0-4.7,2.1-4.7,4.7v20.1
			C251.6,218.8,253.7,220.9,256.4,220.9z"/>
		<path d="M204,231.3c0.9,1.5,2.5,2.4,4.1,2.4c0.8,0,1.6-0.2,2.4-0.6c2.3-1.3,3-4.2,1.7-6.5l-10.1-17.4c-1.3-2.3-4.2-3-6.5-1.7
			c-2.3,1.3-3,4.2-1.7,6.5L204,231.3z"/>
		<path d="M152.9,258.1l17.4,10.1c0.7,0.4,1.6,0.6,2.4,0.6c1.6,0,3.2-0.9,4.1-2.4c1.3-2.3,0.5-5.2-1.7-6.5l-17.4-10.1
			c-2.3-1.3-5.2-0.5-6.5,1.7C149.9,253.9,150.7,256.8,152.9,258.1z"/>
		<path d="M164.4,312.2c0-2.6-2.1-4.7-4.7-4.7h-20.1c-2.6,0-4.7,2.1-4.7,4.7c0,2.6,2.1,4.7,4.7,4.7h20.1
			C162.3,316.9,164.4,314.8,164.4,312.2z"/>
		<path d="M170,356.3l-17.4,10.1c-2.3,1.3-3,4.2-1.7,6.5c0.9,1.5,2.5,2.4,4.1,2.4c0.8,0,1.6-0.2,2.4-0.6l17.4-10.1
			c2.3-1.3,3-4.2,1.7-6.5C175.2,355.7,172.3,355,170,356.3z"/>
		<path d="M209.9,391.7c-2.3-1.3-5.2-0.5-6.5,1.7l-10.1,17.4c-1.3,2.3-0.5,5.2,1.7,6.5c0.7,0.4,1.6,0.6,2.4,0.6
			c1.6,0,3.2-0.9,4.1-2.4l10.1-17.4C212.9,395.9,212.2,393,209.9,391.7L209.9,391.7z"/>
		<path d="M255.6,404.1c-2.6,0-4.7,2.1-4.7,4.7V429c0,2.6,2.1,4.7,4.7,4.7s4.7-2.1,4.7-4.7v-20.1
			C260.4,406.2,258.3,404.1,255.6,404.1z"/>
		<path d="M308,393.8c-1.3-2.3-4.2-3-6.5-1.7c-2.3,1.3-3,4.2-1.7,6.5l10.1,17.4c0.9,1.5,2.5,2.4,4.1,2.4c0.8,0,1.6-0.2,2.4-0.6
			c2.3-1.3,3-4.2,1.7-6.5L308,393.8z"/>
		<path d="M359.1,366.9l-17.4-10.1c-2.3-1.3-5.2-0.5-6.5,1.7c-1.3,2.3-0.5,5.2,1.7,6.5l17.4,10.1c0.7,0.4,1.6,0.6,2.4,0.6
			c1.6,0,3.2-0.9,4.1-2.4C362.1,371.2,361.3,368.3,359.1,366.9z"/>
		<path d="M372.5,308.1h-20.1c-2.6,0-4.7,2.1-4.7,4.7c0,2.6,2.1,4.7,4.7,4.7h20.1c2.6,0,4.7-2.1,4.7-4.7
			C377.2,310.2,375.1,308.1,372.5,308.1z"/>
		<path d="M339.6,269.4c0.8,0,1.6-0.2,2.4-0.6l17.4-10.1c2.3-1.3,3-4.2,1.7-6.5c-1.3-2.3-4.2-3-6.5-1.7l-17.4,10.1
			c-2.3,1.3-3,4.2-1.7,6.5C336.4,268.5,338,269.4,339.6,269.4z"/>
		<path d="M302.1,233.3c0.7,0.4,1.6,0.6,2.4,0.6c1.6,0,3.2-0.9,4.1-2.4l10.1-17.4c1.3-2.3,0.5-5.2-1.7-6.5c-2.3-1.3-5.2-0.5-6.5,1.7
			l-10.1,17.4C299.1,229.1,299.8,232,302.1,233.3z"/>
		<circle cx="329" cy="291.7" r="4.7"/>
	</g>
</g>
</svg>
