<?xml version="1.0" encoding="utf-8"?>
<!-- Generator: Adobe Illustrator 26.0.1, SVG Export Plug-In . SVG Version: 6.00 Build 0)  -->
<svg version="1.1" id="Layer_1" xmlns="http://www.w3.org/2000/svg" xmlns:xlink="http://www.w3.org/1999/xlink" x="0px" y="0px"
	 viewBox="0 0 500 500" style="enable-background:new 0 0 500 500;" xml:space="preserve">
<style type="text/css">
	.st0{fill:#6F090B;}
</style>
<g id="Icon_00000058570389323307862720000005448300329286804660_">
	<path id="_31_00000041982612785219700040000007375169754721714334_" class="st0" d="M250,13.3c-130.7,0-236.7,106-236.7,236.7
		s106,236.7,236.7,236.7s236.7-106,236.7-236.7S380.7,13.3,250,13.3z M374.9,349.7l-21.1-12.9l-21.1,12.9l5.7-24l-18.7-16.1l24.6-2
		l9.5-22.8l9.5,22.8l24.6,2l-18.7,16.1L374.9,349.7L374.9,349.7z M244.7,165.7c2.6,0,4.6,2.1,4.6,4.6c0,2.6-2.1,4.6-4.6,4.6h-15.4
		c-2.6,0-4.6-2.1-4.6-4.6c0-2.6,2.1-4.6,4.6-4.6H244.7z M226.2,226.2c-1.8,1.8-4.7,1.8-6.5,0l-10.9-10.9c-1.8-1.8-1.8-4.7,0-6.5
		c1.8-1.8,4.7-1.8,6.5,0l10.9,10.9C228,221.5,228,224.4,226.2,226.2z M208.8,125.4l10.9-10.9c1.8-1.8,4.7-1.8,6.5,0
		c1.8,1.8,1.8,4.7,0,6.5l-10.9,10.9c-1.8,1.8-4.7,1.8-6.5,0C207,130.1,207,127.2,208.8,125.4z M165.7,96c0-2.6,2.1-4.6,4.6-4.6
		c2.6,0,4.6,2.1,4.6,4.6v15.4c0,2.6-2.1,4.6-4.6,4.6c-2.6,0-4.6-2.1-4.6-4.6V96z M114.5,114.5c1.8-1.8,4.7-1.8,6.5,0l10.9,10.9
		c1.8,1.8,1.8,4.7,0,6.5c-1.8,1.8-4.7,1.8-6.5,0L114.5,121C112.7,119.2,112.7,116.3,114.5,114.5z M96,175c-2.6,0-4.6-2.1-4.6-4.6
		s2.1-4.6,4.6-4.6h15.4c2.6,0,4.6,2.1,4.6,4.6s-2.1,4.6-4.6,4.6H96z M131.9,215.3L121,226.2c-1.8,1.8-4.7,1.8-6.5,0
		c-1.8-1.8-1.8-4.7,0-6.5l10.9-10.9c1.8-1.8,4.7-1.8,6.5,0C133.7,210.6,133.7,213.5,131.9,215.3z M124,170.4
		c0-25.6,20.7-46.3,46.3-46.3s46.3,20.7,46.3,46.3s-20.7,46.3-46.3,46.3S124,195.9,124,170.4L124,170.4z M175,229.3v15.4
		c0,2.6-2.1,4.6-4.6,4.6c-2.6,0-4.6-2.1-4.6-4.6v-15.4c0-2.6,2.1-4.6,4.6-4.6C172.9,224.7,175,226.7,175,229.3z M154.5,365.2
		c-3.7,3.7-9.7,3.7-13.4,0c-3.7-3.7-3.7-9.7,0-13.4l210.7-210.7c3.7-3.7,9.7-3.7,13.4,0c3.7,3.7,3.7,9.7,0,13.4L154.5,365.2z
		 M339.2,408.7c-38.4,0-69.6-31.1-69.6-69.6s29.2-67.6,66-69.5c-17.4,9-29.4,27.2-29.4,48.2c0,30,24.3,54.2,54.2,54.2
		c21,0,39.2-11.9,48.2-29.4C406.8,379.5,376.4,408.7,339.2,408.7L339.2,408.7z"/>
</g>
</svg>
