<?xml version="1.0" encoding="utf-8"?>
<!-- Generator: Adobe Illustrator 26.0.1, SVG Export Plug-In . SVG Version: 6.00 Build 0)  -->
<svg version="1.1" id="Layer_1" xmlns="http://www.w3.org/2000/svg" xmlns:xlink="http://www.w3.org/1999/xlink" x="0px" y="0px"
	 viewBox="0 0 500 500" style="enable-background:new 0 0 500 500;" xml:space="preserve">
<style type="text/css">
	.st0{fill:#000066;}
</style>
<g>
	<g id="Layer_3">
		<path class="st0" d="M250,91.3c-87.6,0-158.7,71-158.7,158.7s71,158.7,158.7,158.7s158.7-71,158.7-158.7S337.6,91.3,250,91.3z
			 M250,395.5c-80.3,0-145.5-65.1-145.5-145.5S169.7,104.5,250,104.5S395.5,169.7,395.5,250C395.4,330.3,330.3,395.4,250,395.5z"/>
	</g>
	<g id="Layer_4">
		<path class="st0" d="M329.3,283.1c-3.7,0-6.6,3-6.6,6.6v26.4c0,10.9-8.9,19.8-19.8,19.8H197.1c-10.9,0-19.8-8.9-19.8-19.8v-26.4
			c0-3.7-3-6.6-6.6-6.6c-3.7,0-6.6,3-6.6,6.6v26.4c0,18.2,14.8,33,33.1,33.1h105.8c18.2,0,33-14.8,33.1-33.1v-26.4
			C335.9,286,333,283.1,329.3,283.1z"/>
		<path class="st0" d="M310.4,233.6c-7.6-4.4-17-4.3-24.4,0.3l-9.5,5.7v-62.4c0-14.6-11.8-26.4-26.4-26.4s-26.4,11.8-26.4,26.4v62.4
			l-9.5-5.7c-11.5-6.9-26.4-3.2-33.3,8.3c-6.2,10.4-3.8,23.8,5.6,31.4l51.2,41c7.2,5.8,17.6,5.8,24.8,0l51.2-41
			c10.5-8.4,12.2-23.6,3.8-34.1C315.5,237.2,313.1,235.1,310.4,233.6L310.4,233.6z M305.4,263.4l-51.2,41c-2.4,1.9-5.8,1.9-8.3,0
			l-51.2-41c-4.8-3.8-5.6-10.7-1.8-15.5c3.5-4.3,9.6-5.5,14.4-2.6l19.5,11.7c3.1,1.9,7.2,0.9,9.1-2.3c0.6-1,0.9-2.2,0.9-3.4v-74
			c0-7.3,5.9-13.2,13.2-13.2c7.3,0,13.2,5.9,13.2,13.2v74c0,3.7,3,6.6,6.6,6.6c1.2,0,2.4-0.3,3.4-0.9l19.5-11.7
			c5.2-3.1,12-1.5,15.2,3.8C310.8,253.8,309.7,259.9,305.4,263.4L305.4,263.4z"/>
	</g>
</g>
</svg>
