<?xml version="1.0" encoding="utf-8"?>
<!-- Generator: Adobe Illustrator 26.0.1, SVG Export Plug-In . SVG Version: 6.00 Build 0)  -->
<svg version="1.1" id="Layer_1" xmlns="http://www.w3.org/2000/svg" xmlns:xlink="http://www.w3.org/1999/xlink" x="0px" y="0px"
	 viewBox="0 0 500 500" style="enable-background:new 0 0 500 500;" xml:space="preserve">
<style type="text/css">
	.st0{fill-rule:evenodd;clip-rule:evenodd;fill:#000066;}
</style>
<g>
	<g transform="translate(-216 -563)">
		<g id="Artboard1_9_" transform="translate(216.88 563.88)">
			<g transform="matrix(0 1 -1 0 663.977 -222.496)">
				<path class="st0" d="M471.6,531.3l123,40.5c5.1,1.7,10.7,0.2,14.3-3.8c3.6-4,4.5-9.7,2.4-14.6L484,265.4
					c-2.2-4.9-7-8.1-12.4-8.1c-5.4,0-10.2,3.2-12.4,8.1C438,313.4,353.1,505.5,332,553.4c-2.2,4.9-1.2,10.6,2.4,14.6
					c3.6,4,9.2,5.5,14.3,3.8L471.6,531.3z M349.8,553.9l121.8-275.7l121.8,275.7l-117.5-38.7c-2.8-0.9-5.7-0.9-8.5,0L349.8,553.9z"
					/>
			</g>
			<g transform="matrix(0 1 -1 0 663.977 -216.88)">
				<path class="st0" d="M474.3,522.5v-91.7c0-4.6-3.7-8.3-8.3-8.3c-4.6,0-8.3,3.7-8.3,8.3v91.7c0,4.6,3.7,8.3,8.3,8.3
					C470.6,530.8,474.3,527.1,474.3,522.5z"/>
			</g>
		</g>
	</g>
</g>
</svg>
