<?xml version="1.0" encoding="utf-8"?>
<!-- Generator: Adobe Illustrator 26.0.1, SVG Export Plug-In . SVG Version: 6.00 Build 0)  -->
<svg version="1.1" id="Layer_1" xmlns="http://www.w3.org/2000/svg" xmlns:xlink="http://www.w3.org/1999/xlink" x="0px" y="0px"
	 viewBox="0 0 500 500" style="enable-background:new 0 0 500 500;" xml:space="preserve">
<style type="text/css">
	.st0{fill:#6F090B;}
	.st1{fill:#FFFFFF;}
</style>
<g>
	<g>
		<g>
			<path class="st0" d="M296.6,79.4c-9.5-16.8-25.3-29.7-44.5-35.4c-20.2,1.3-39.2,19-48.8,35.4C233.7,71.2,266.2,71.1,296.6,79.4z"
				/>
			<path class="st0" d="M162.4,96.4c-18.8-4.8-43.8-4-59.6,9.4c-9.5,17.6-11.6,37.9-6.4,56.5C112,135,134.9,112,162.4,96.4z"/>
			<path class="st0" d="M79.4,203.4c-16.8,9.5-29.7,25.3-35.4,44.5c1.3,20.2,19,39.2,35.4,48.8C71.2,266.3,71.1,233.8,79.4,203.4z"
				/>
			<path class="st0" d="M96.4,337.6c-4.8,18.8-4,43.8,9.4,59.5c17.6,9.5,37.9,11.6,56.5,6.4C135,388,112,365.1,96.4,337.6z"/>
			<path class="st0" d="M203.4,420.6c9.5,16.8,25.3,29.7,44.5,35.4c20.2-1.3,39.2-19,48.8-35.4C266.3,428.8,233.8,428.9,203.4,420.6
				z"/>
			<path class="st0" d="M337.6,403.6c18.8,4.8,43.8,4,59.6-9.4c9.5-17.6,11.6-37.9,6.4-56.5C388,365,365.1,388,337.6,403.6z"/>
			<path class="st0" d="M420.6,203.4c8.3,30.4,8.4,62.9,0,93.3c16.8-9.5,29.7-25.3,35.4-44.5C454.7,231.9,437,212.9,420.6,203.4z"/>
			<path class="st0" d="M403.6,162.4c4.8-18.8,4-43.8-9.4-59.6c-17.6-9.5-37.9-11.6-56.5-6.4C365,112,388,134.9,403.6,162.4z"/>
			<path class="st0" d="M213.4,92.1C141.9,108.5,87.8,173.2,87.9,250c8.9,215,315.3,215,324.2,0C413.5,146.3,311.4,67.8,213.4,92.1z
				 M250,382.7c-73.1,0-132.7-59.5-132.7-132.7c7.3-175.9,258-175.9,265.3,0C382.7,323.1,323.1,382.7,250,382.7z"/>
			<circle class="st0" cx="250" cy="250" r="117.7"/>
		</g>
	</g>
	<g>
		<path class="st1" d="M306.5,267.3c-1.3-3-1.3-8.2,2.5-16c7-16.2,16-28,15.2-44.1c-2.4-25.7-23.1-36.2-41.7-33.6
			c-12.7,1.8-23.7,9.6-29.5,20.6c-4.3,8.1-6.3,18.9-6.4,28.6h-11.7c0.3,2.5,2.6,5.8,2.6,5.8c2,3.3,5.6,5.3,9.4,5.3v21.8
			c-3.4,1.2-6.9,2.8-10.2,4.7c-2.6-1.3-5-2.6-7.2-3.9c1.1-1.2,2.1-2.5,3.2-3.9c0.1-0.1,0.2-0.2,0.2-0.3c2.2-3.1,3.3-6.4,3.3-9.8
			c0-3.5-1-6.7-3-9.7c-2-3-4.6-5.4-7.9-7.2c-3.3-1.8-6.9-2.8-10.8-2.8c-4.3,0-7.9,1.3-10.8,3.9c-2.8,2.6-4.3,5.8-4.3,9.6
			c0,2.7,0.6,5.3,1.9,7.7c1.3,2.4,3,4.7,5.4,6.8c1.4,1.3,2.9,2.6,4.6,3.8c-3.2,5.5-36.9,18.2-53,3.4c10.5,14.9,34.9,18.8,51.3,12.1
			c5.1-2.1,10.7-5.6,14.1-8c0.7,0.4,1.4,0.7,2,1.1c1.2,0.6,2.4,1.2,3.6,1.8c-2.4,1.7-4.6,3.5-6.8,5.1c-14.7,10.7-17.8,30-9.8,44.5
			c0,0,0,0,0,0c6.4,11.7,21.9,13.9,37,8.4c28.7-10.4,45.5-29.1,61.4-22c-26.5-21.7-84.1,31.9-98.8,11.2c-1-11.5,6.2-20.1,14.3-27.9
			c7.6-7.3,13.4-11.8,20.3-14.3v10.6c0,2.8,1.4,5.4,3.8,6.9l7.2,4.6c0.9,0.5,1.8,0.8,2.8,0.8v-59h6.8h7.6h1.1v47.7
			c0,2.1,1.1,4.1,2.9,5.3l8.1,5.2c0.9,0.5,1.8,0.8,2.8,0.8v-59h14.5c0-1-0.3-2-0.8-2.9c-3.1-5.1-8.7-8.2-14.7-8.2h-19.8h-7.6H261
			c-0.1-5.1,0.3-10.3,1.4-15.3c0.6-2.5,1.3-4.8,2.3-7.1c2-4.3,5.5-8,9.6-10.4c8.3-4.9,17.8-5.1,26.1-0.2
			c21.4,13.6,4.9,41.9-0.4,56.1c-2.6,6.6-5.5,15.8-2.1,22.3c1.9,3.6,7,8.8,18.6,6.9C315.2,275,308.3,271.3,306.5,267.3z
			 M214.3,233.1c1.2-1.3,2.7-1.9,4.5-1.9c1.9,0,3.4,0.6,4.5,1.9c1.1,1.3,1.7,2.9,1.7,4.9c0,1.5-0.3,2.9-0.8,4.3l0,0
			c-0.2,0.5-0.4,1.1-0.7,1.6c-0.4,0.7-0.9,1.4-1.4,2.1c-0.9,1.1-1.9,2.2-3.3,3.3c-1.2-1-2.2-2-3-3c-2.2-2.6-3.3-5.4-3.3-8.3
			C212.5,236,213.1,234.3,214.3,233.1z"/>
	</g>
</g>
</svg>
