<?xml version="1.0" encoding="utf-8"?>
<!-- Generator: Adobe Illustrator 26.0.1, SVG Export Plug-In . SVG Version: 6.00 Build 0)  -->
<svg version="1.1" id="Layer_1" xmlns="http://www.w3.org/2000/svg" xmlns:xlink="http://www.w3.org/1999/xlink" x="0px" y="0px"
	 viewBox="0 0 500 500" style="enable-background:new 0 0 500 500;" xml:space="preserve">
<style type="text/css">
	.st0{fill:#2196F3;}
	.st1{fill:#29B3FF;}
	.st2{fill:#FFFFFF;}
</style>
<g id="Layer_2_00000067914569187727062210000009536143297377379503_">
	<path class="st0" d="M443.6,180.4c-5.9-5.9-9.2-13.9-9.2-22.3v-28.1c0-35.6-28.9-64.4-64.5-64.4h-28.1c-8.3,0-16.4-3.3-22.3-9.2
		l-24-24c-25.2-25.1-66-25.1-91.2,0l-24,24c-5.9,5.9-13.9,9.2-22.3,9.2h-28.1c-35.6,0-64.4,28.9-64.5,64.4v28.1
		c0,8.3-3.3,16.3-9.2,22.2l-24,24c-25.1,25.2-25.1,66,0,91.2l24,24c5.9,5.9,9.2,13.9,9.2,22.3v28.1c0,35.6,28.9,64.4,64.5,64.4h28.1
		c8.4,0,16.4,3.3,22.3,9.2l24,24c25.2,25.1,66,25.1,91.2,0l24-24c5.9-5.9,13.9-9.2,22.3-9.2h28.1c35.6,0,64.4-28.9,64.5-64.4v-28.1
		c0-8.3,3.3-16.3,9.2-22.2l24-24c25.1-25.2,25.1-66,0-91.2L443.6,180.4z"/>
	<circle class="st1" cx="250" cy="250" r="148.5"/>
	<path class="st2" d="M228,310.5c-4.4,0-8.6-1.7-11.7-4.8l-44-44c-6.2-6.7-5.8-17.1,0.8-23.3c6.3-5.9,16.2-5.9,22.5,0l32.3,32.3
		l76.3-76.3c6.7-6.2,17.1-5.8,23.3,0.8c5.9,6.3,5.9,16.2,0,22.5l-88,88C236.6,308.7,232.4,310.5,228,310.5L228,310.5z"/>
</g>
</svg>
